<svg width="48" height="48" viewBox="0 0 48 48" fill="none" xmlns="http://www.w3.org/2000/svg">
<path d="M28.1925 24.4423L21.9425 30.6923C21.8845 30.7504 21.8155 30.7964 21.7397 30.8278C21.6638 30.8593 21.5825 30.8755 21.5003 30.8755C21.4182 30.8755 21.3369 30.8593 21.261 30.8278C21.1852 30.7964 21.1162 30.7504 21.0582 30.6923C21.0001 30.6342 20.954 30.5653 20.9226 30.4894C20.8912 30.4135 20.875 30.3322 20.875 30.2501C20.875 30.168 20.8912 30.0867 20.9226 30.0108C20.954 29.9349 21.0001 29.866 21.0582 29.8079L26.8668 24.0001L21.0582 18.1923C20.9409 18.075 20.875 17.916 20.875 17.7501C20.875 17.5843 20.9409 17.4252 21.0582 17.3079C21.1754 17.1906 21.3345 17.1248 21.5003 17.1248C21.6662 17.1248 21.8253 17.1906 21.9425 17.3079L28.1925 23.5579C28.2506 23.616 28.2967 23.6849 28.3282 23.7608C28.3597 23.8366 28.3758 23.918 28.3758 24.0001C28.3758 24.0822 28.3597 24.1636 28.3282 24.2394C28.2967 24.3153 28.2506 24.3842 28.1925 24.4423Z" fill="#003E68"/>
<rect x="0.5" y="0.5" width="47" height="47" rx="23.5" stroke="#003E68"/>
</svg>
