<svg width="48" height="48" viewBox="0 0 48 48" fill="none" xmlns="http://www.w3.org/2000/svg">
<path d="M26.9427 29.8079C27.0007 29.866 27.0468 29.9349 27.0782 30.0108C27.1097 30.0867 27.1258 30.168 27.1258 30.2501C27.1258 30.3322 27.1097 30.4135 27.0782 30.4894C27.0468 30.5653 27.0007 30.6342 26.9427 30.6923C26.8846 30.7504 26.8157 30.7964 26.7398 30.8278C26.6639 30.8593 26.5826 30.8755 26.5005 30.8755C26.4184 30.8755 26.3371 30.8593 26.2612 30.8278C26.1853 30.7964 26.1164 30.7504 26.0583 30.6923L19.8083 24.4423C19.7502 24.3842 19.7041 24.3153 19.6726 24.2394C19.6412 24.1636 19.625 24.0822 19.625 24.0001C19.625 23.918 19.6412 23.8366 19.6726 23.7608C19.7041 23.6849 19.7502 23.616 19.8083 23.5579L26.0583 17.3079C26.1756 17.1906 26.3346 17.1248 26.5005 17.1248C26.6663 17.1248 26.8254 17.1906 26.9427 17.3079C27.06 17.4252 27.1258 17.5843 27.1258 17.7501C27.1258 17.916 27.06 18.075 26.9427 18.1923L21.1341 24.0001L26.9427 29.8079Z" fill="#003E68"/>
<rect x="0.5" y="0.5" width="47" height="47" rx="23.5" stroke="#003E68"/>
</svg>
